<svg width="96" height="96" xmlns="http://www.w3.org/2000/svg" xmlns:xlink="http://www.w3.org/1999/xlink" xml:space="preserve" overflow="hidden"><g transform="translate(-847 -460)"><path d="M906.539 529 906.539 515.371 892.789 502.31 879.039 515.372 879.039 529 890.039 529 890.039 517.542 895.539 517.542 895.539 529 906.539 529Z" fill="#FFFFFF"/><path d="M940.446 476.834 937.166 473.554C936.455 472.827 935.29 472.814 934.563 473.524 934.553 473.534 934.543 473.544 934.533 473.554L931.251 476.837 937.117 482.7 940.4 479.421C941.126 478.783 941.197 477.677 940.559 476.951 940.523 476.91 940.485 476.871 940.446 476.834Z" fill="#FFFFFF"/><path d="M935.749 484.163 929.837 478.251 906.91 501.223 904.91 507.257 892.832 495.727 892.832 495.727 874.042 513.6 876.123 515.378 892.831 499.509 892.831 499.509 903.955 510.045 904.725 509.761 912.825 507.09ZM911.849 505.473 907.923 506.766 907.23 506.074 908.523 502.147C909.461 501.26 910.935 501.28 911.849 502.193 912.756 503.072 912.778 504.52 911.899 505.427 911.884 505.443 911.869 505.458 911.853 505.473Z" fill="#FFFFFF"/><path d="M916 536 859 536C857.895 536 857 535.105 857 534 857 532.895 857.895 532 859 532L869 532 869 490 913.874 490 919.862 484 869 484 869 474 859 474C854.584 474.005 851.005 477.584 851 482L851 534C851.005 538.416 854.584 541.995 859 542L922 542 922 502.155 916 508.155ZM857 482C857 480.895 857.895 480 859 480L863 480 863 526 859 526C858.325 526 857.653 526.085 857 526.253Z" fill="#FFFFFF"/></g></svg>